<svg width="129" height="46" viewBox="0 0 129 46" fill="none" xmlns="http://www.w3.org/2000/svg">
<rect width="129" height="46" rx="23" fill="#09B451"/>
<path fill-rule="evenodd" clip-rule="evenodd" d="M37.25 17.0626L31 26.4376L24.75 17.0626C24.6679 16.9394 24.5624 16.8337 24.4395 16.7514C24.3165 16.669 24.1786 16.6117 24.0335 16.5827C23.8884 16.5537 23.739 16.5535 23.5939 16.5822C23.4487 16.611 23.3106 16.668 23.1875 16.7501C23.0644 16.8321 22.9587 16.9376 22.8763 17.0606C22.794 17.1835 22.7367 17.3215 22.7077 17.4666C22.6787 17.6117 22.6785 17.7611 22.7072 17.9062C22.7359 18.0514 22.7929 18.1894 22.875 18.3126L29.96 28.9401C30.0742 29.1112 30.2288 29.2516 30.4103 29.3487C30.5917 29.4458 30.7943 29.4966 31 29.4966C31.2058 29.4966 31.4084 29.4458 31.5898 29.3487C31.7712 29.2516 31.9259 29.1112 32.04 28.9401L39.125 18.3126C39.2071 18.1894 39.2641 18.0514 39.2928 17.9062C39.3216 17.7611 39.3214 17.6117 39.2924 17.4666C39.2634 17.3215 39.2061 17.1835 39.1237 17.0606C39.0414 16.9376 38.9356 16.8321 38.8125 16.7501C38.6894 16.668 38.5513 16.611 38.4062 16.5822C38.261 16.5535 38.1116 16.5537 37.9666 16.5827C37.8215 16.6117 37.6835 16.669 37.5606 16.7514C37.4376 16.8337 37.3321 16.9394 37.25 17.0626Z" fill="white"/>
<path d="M55.364 29.626C54.536 29.626 53.792 29.482 53.132 29.194C52.484 28.894 51.974 28.486 51.602 27.97C51.23 27.442 51.038 26.836 51.026 26.152H52.772C52.832 26.74 53.072 27.238 53.492 27.646C53.924 28.042 54.548 28.24 55.364 28.24C56.144 28.24 56.756 28.048 57.2 27.664C57.656 27.268 57.884 26.764 57.884 26.152C57.884 25.672 57.752 25.282 57.488 24.982C57.224 24.682 56.894 24.454 56.498 24.298C56.102 24.142 55.568 23.974 54.896 23.794C54.068 23.578 53.402 23.362 52.898 23.146C52.406 22.93 51.98 22.594 51.62 22.138C51.272 21.67 51.098 21.046 51.098 20.266C51.098 19.582 51.272 18.976 51.62 18.448C51.968 17.92 52.454 17.512 53.078 17.224C53.714 16.936 54.44 16.792 55.256 16.792C56.432 16.792 57.392 17.086 58.136 17.674C58.892 18.262 59.318 19.042 59.414 20.014H57.614C57.554 19.534 57.302 19.114 56.858 18.754C56.414 18.382 55.826 18.196 55.094 18.196C54.41 18.196 53.852 18.376 53.42 18.736C52.988 19.084 52.772 19.576 52.772 20.212C52.772 20.668 52.898 21.04 53.15 21.328C53.414 21.616 53.732 21.838 54.104 21.994C54.488 22.138 55.022 22.306 55.706 22.498C56.534 22.726 57.2 22.954 57.704 23.182C58.208 23.398 58.64 23.74 59 24.208C59.36 24.664 59.54 25.288 59.54 26.08C59.54 26.692 59.378 27.268 59.054 27.808C58.73 28.348 58.25 28.786 57.614 29.122C56.978 29.458 56.228 29.626 55.364 29.626ZM66.2525 29.662C65.3285 29.662 64.4885 29.452 63.7325 29.032C62.9885 28.612 62.4005 28.018 61.9685 27.25C61.5485 26.47 61.3385 25.57 61.3385 24.55C61.3385 23.542 61.5545 22.654 61.9865 21.886C62.4305 21.106 63.0305 20.512 63.7865 20.104C64.5425 19.684 65.3885 19.474 66.3245 19.474C67.2605 19.474 68.1065 19.684 68.8625 20.104C69.6185 20.512 70.2125 21.1 70.6445 21.868C71.0885 22.636 71.3105 23.53 71.3105 24.55C71.3105 25.57 71.0825 26.47 70.6265 27.25C70.1825 28.018 69.5765 28.612 68.8085 29.032C68.0405 29.452 67.1885 29.662 66.2525 29.662ZM66.2525 28.222C66.8405 28.222 67.3925 28.084 67.9085 27.808C68.4245 27.532 68.8385 27.118 69.1505 26.566C69.4745 26.014 69.6365 25.342 69.6365 24.55C69.6365 23.758 69.4805 23.086 69.1685 22.534C68.8565 21.982 68.4485 21.574 67.9445 21.31C67.4405 21.034 66.8945 20.896 66.3065 20.896C65.7065 20.896 65.1545 21.034 64.6505 21.31C64.1585 21.574 63.7625 21.982 63.4625 22.534C63.1625 23.086 63.0125 23.758 63.0125 24.55C63.0125 25.354 63.1565 26.032 63.4445 26.584C63.7445 27.136 64.1405 27.55 64.6325 27.826C65.1245 28.09 65.6645 28.222 66.2525 28.222ZM75.1021 21.238C75.3901 20.674 75.7981 20.236 76.3261 19.924C76.8661 19.612 77.5201 19.456 78.2881 19.456V21.148H77.8561C76.0201 21.148 75.1021 22.144 75.1021 24.136V29.5H73.4641V19.636H75.1021V21.238ZM82.177 20.986V26.8C82.177 27.28 82.279 27.622 82.483 27.826C82.687 28.018 83.041 28.114 83.545 28.114H84.751V29.5H83.275C82.363 29.5 81.679 29.29 81.223 28.87C80.767 28.45 80.539 27.76 80.539 26.8V20.986H79.261V19.636H80.539V17.152H82.177V19.636H84.751V20.986H82.177ZM93.1724 21.472C93.5084 20.884 94.0004 20.404 94.6484 20.032C95.2964 19.66 96.0344 19.474 96.8624 19.474C97.7504 19.474 98.5484 19.684 99.2564 20.104C99.9644 20.524 100.522 21.118 100.93 21.886C101.338 22.642 101.542 23.524 101.542 24.532C101.542 25.528 101.338 26.416 100.93 27.196C100.522 27.976 99.9584 28.582 99.2384 29.014C98.5304 29.446 97.7384 29.662 96.8624 29.662C96.0104 29.662 95.2604 29.476 94.6124 29.104C93.9764 28.732 93.4964 28.258 93.1724 27.682V29.5H91.5344V16.18H93.1724V21.472ZM99.8684 24.532C99.8684 23.788 99.7184 23.14 99.4184 22.588C99.1184 22.036 98.7104 21.616 98.1944 21.328C97.6904 21.04 97.1324 20.896 96.5204 20.896C95.9204 20.896 95.3624 21.046 94.8464 21.346C94.3424 21.634 93.9344 22.06 93.6224 22.624C93.3224 23.176 93.1724 23.818 93.1724 24.55C93.1724 25.294 93.3224 25.948 93.6224 26.512C93.9344 27.064 94.3424 27.49 94.8464 27.79C95.3624 28.078 95.9204 28.222 96.5204 28.222C97.1324 28.222 97.6904 28.078 98.1944 27.79C98.7104 27.49 99.1184 27.064 99.4184 26.512C99.7184 25.948 99.8684 25.288 99.8684 24.532ZM112.195 19.636L106.255 34.144H104.562L106.507 29.392L102.529 19.636H104.347L107.443 27.628L110.503 19.636H112.195Z" fill="white"/>
</svg>
